PERFORMER "张杰"
TITLE "这，就是爱"
REM GENRE "Pop"
REM DATE 2010
FILE "张杰.-.[这，就是爱].专辑.(APE).ape" WAVE
  TRACK 01 AUDIO
    TITLE "今生今世"
    PERFORMER "张杰"
    REM GENRE Pop
    REM DATE 2010
    REM COMMENT 91Ting音乐社区 www.91ting.com
    INDEX 01 00:00:00
  TRACK 02 AUDIO
    TITLE "最悲歌"
    PERFORMER "张杰"
    REM GENRE Pop
    REM DATE 2010
    REM COMMENT 91Ting音乐社区 www.91ting.com
    INDEX 01 04:01:57
  TRACK 03 AUDIO
    TITLE "女人到底想什么"
    PERFORMER "张杰/张宇"
    REM GENRE Pop
    REM DATE 2010
    REM COMMENT 91Ting音乐社区 www.91ting.com
    INDEX 01 08:13:57
  TRACK 04 AUDIO
    TITLE "这，就是爱"
    PERFORMER "张杰"
    REM GENRE Pop
    REM DATE 2010
    REM COMMENT 91Ting音乐社区 www.91ting.com
    INDEX 01 12:18:20
  TRACK 05 AUDIO
    TITLE "手中沙"
    PERFORMER "张杰"
    REM GENRE Pop
    REM DATE 2010
    REM COMMENT 91Ting音乐社区 www.91ting.com
    INDEX 01 17:12:58
  TRACK 06 AUDIO
    TITLE "青梅竹马"
    PERFORMER "张杰"
    REM GENRE Pop
    REM DATE 2010
    REM COMMENT 91Ting音乐社区 www.91ting.com
    INDEX 01 20:54:02
  TRACK 07 AUDIO
    TITLE "习惯了"
    PERFORMER "张杰"
    REM GENRE Pop
    REM DATE 2010
    REM COMMENT 91Ting音乐社区 www.91ting.com
    INDEX 01 25:29:73
  TRACK 08 AUDIO
    TITLE "一切都值得"
    PERFORMER "张杰"
    REM GENRE Pop
    REM DATE 2010
    REM COMMENT 91Ting音乐社区 www.91ting.com
    INDEX 01 29:37:73
  TRACK 09 AUDIO
    TITLE "包围"
    PERFORMER "张杰"
    REM GENRE Pop
    REM DATE 2010
    REM COMMENT 91Ting音乐社区 www.91ting.com
    INDEX 01 34:17:17
  TRACK 10 AUDIO
    TITLE "云中的Angel"
    PERFORMER "张杰"
    REM GENRE Pop
    REM DATE 2010
    REM COMMENT 91Ting音乐社区 www.91ting.com
    INDEX 01 39:01:36
